<mxfile host="app.diagrams.net" modified="2024-02-11T02:24:18.678Z" agent="Mozilla/5.0 (Windows NT 10.0; Win64; x64) AppleWebKit/537.36 (KHTML, like Gecko) Chrome/120.0.0.0 Safari/537.36" etag="AcOJEeFLL2BqjfXBEu0d" version="23.1.2" type="github">
  <diagram name="第 1 页" id="bDmCU41bznjaOLfG8BY1">
    <mxGraphModel dx="2074" dy="3618" grid="1" gridSize="10" guides="1" tooltips="1" connect="1" arrows="1" fold="1" page="1" pageScale="1" pageWidth="291" pageHeight="413" math="0" shadow="0">
      <root>
        <mxCell id="0" />
        <mxCell id="1" parent="0" />
        <mxCell id="kFxYqNJQI-VPD_FiJo-z-1" value="" style="edgeStyle=orthogonalEdgeStyle;rounded=0;orthogonalLoop=1;jettySize=auto;html=1;" parent="1" source="kFxYqNJQI-VPD_FiJo-z-3" target="kFxYqNJQI-VPD_FiJo-z-8" edge="1">
          <mxGeometry relative="1" as="geometry">
            <Array as="points">
              <mxPoint x="125.25" y="-2190" />
              <mxPoint x="125.25" y="-2190" />
            </Array>
          </mxGeometry>
        </mxCell>
        <mxCell id="ZI6ryOquVKS2EfcEjUDm-2" value="" style="edgeStyle=orthogonalEdgeStyle;rounded=0;orthogonalLoop=1;jettySize=auto;html=1;" parent="1" source="kFxYqNJQI-VPD_FiJo-z-3" target="ZI6ryOquVKS2EfcEjUDm-1" edge="1">
          <mxGeometry relative="1" as="geometry" />
        </mxCell>
        <mxCell id="kFxYqNJQI-VPD_FiJo-z-3" value="Choose an available difficulty level" style="rounded=1;whiteSpace=wrap;html=1;shadow=0;comic=0;labelBackgroundColor=none;strokeWidth=1;fontFamily=Verdana;fontSize=12;align=center;arcSize=50;" parent="1" vertex="1">
          <mxGeometry x="66.38" y="-2300" width="142.5" height="50" as="geometry" />
        </mxCell>
        <mxCell id="kFxYqNJQI-VPD_FiJo-z-4" value="" style="edgeStyle=orthogonalEdgeStyle;rounded=0;orthogonalLoop=1;jettySize=auto;html=1;entryX=0.5;entryY=0;entryDx=0;entryDy=0;" parent="1" source="kFxYqNJQI-VPD_FiJo-z-5" target="kFxYqNJQI-VPD_FiJo-z-11" edge="1">
          <mxGeometry relative="1" as="geometry">
            <mxPoint x="117.5" y="-2380" as="targetPoint" />
          </mxGeometry>
        </mxCell>
        <mxCell id="kFxYqNJQI-VPD_FiJo-z-5" value="" style="ellipse;whiteSpace=wrap;html=1;rounded=0;shadow=0;comic=0;labelBackgroundColor=none;strokeWidth=1;fillColor=#000000;fontFamily=Verdana;fontSize=12;align=center;" parent="1" vertex="1">
          <mxGeometry x="117.62" y="-2460" width="40" height="40" as="geometry" />
        </mxCell>
        <mxCell id="kFxYqNJQI-VPD_FiJo-z-14" value="" style="edgeStyle=orthogonalEdgeStyle;rounded=0;orthogonalLoop=1;jettySize=auto;html=1;" parent="1" source="kFxYqNJQI-VPD_FiJo-z-8" target="kFxYqNJQI-VPD_FiJo-z-9" edge="1">
          <mxGeometry relative="1" as="geometry" />
        </mxCell>
        <mxCell id="kFxYqNJQI-VPD_FiJo-z-8" value="Start to play a puzzle" style="rounded=1;whiteSpace=wrap;html=1;shadow=0;comic=0;labelBackgroundColor=none;strokeWidth=1;fontFamily=Verdana;fontSize=12;align=center;arcSize=50;" parent="1" vertex="1">
          <mxGeometry x="74.63" y="-2223.5" width="126" height="40" as="geometry" />
        </mxCell>
        <mxCell id="kFxYqNJQI-VPD_FiJo-z-9" value="" style="shape=mxgraph.bpmn.shape;html=1;verticalLabelPosition=bottom;labelBackgroundColor=#ffffff;verticalAlign=top;perimeter=ellipsePerimeter;outline=end;symbol=terminate;rounded=0;shadow=0;comic=0;strokeWidth=1;fontFamily=Verdana;fontSize=12;align=center;" parent="1" vertex="1">
          <mxGeometry x="117.63" y="-2150" width="40" height="40" as="geometry" />
        </mxCell>
        <mxCell id="kFxYqNJQI-VPD_FiJo-z-10" value="" style="edgeStyle=orthogonalEdgeStyle;rounded=0;orthogonalLoop=1;jettySize=auto;html=1;" parent="1" source="kFxYqNJQI-VPD_FiJo-z-11" target="kFxYqNJQI-VPD_FiJo-z-3" edge="1">
          <mxGeometry relative="1" as="geometry">
            <Array as="points">
              <mxPoint x="117.25" y="-2260" />
              <mxPoint x="117.25" y="-2260" />
            </Array>
          </mxGeometry>
        </mxCell>
        <mxCell id="kFxYqNJQI-VPD_FiJo-z-11" value="Choose &quot;Start a New Game&quot; on the main menu" style="rounded=1;whiteSpace=wrap;html=1;shadow=0;comic=0;labelBackgroundColor=none;strokeWidth=1;fontFamily=Verdana;fontSize=12;align=center;arcSize=50;" parent="1" vertex="1">
          <mxGeometry x="60" y="-2390" width="155.25" height="60" as="geometry" />
        </mxCell>
        <mxCell id="ZI6ryOquVKS2EfcEjUDm-4" value="" style="edgeStyle=orthogonalEdgeStyle;rounded=0;orthogonalLoop=1;jettySize=auto;html=1;entryX=1;entryY=0.5;entryDx=0;entryDy=0;" parent="1" source="ZI6ryOquVKS2EfcEjUDm-1" target="kFxYqNJQI-VPD_FiJo-z-9" edge="1">
          <mxGeometry relative="1" as="geometry">
            <mxPoint x="170" y="-2122" as="targetPoint" />
            <Array as="points">
              <mxPoint x="321" y="-2130" />
            </Array>
          </mxGeometry>
        </mxCell>
        <mxCell id="ZI6ryOquVKS2EfcEjUDm-1" value="Return to the main menu" style="rounded=1;whiteSpace=wrap;html=1;shadow=0;comic=0;labelBackgroundColor=none;strokeWidth=1;fontFamily=Verdana;fontSize=12;align=center;arcSize=50;" parent="1" vertex="1">
          <mxGeometry x="250" y="-2300" width="142.5" height="50" as="geometry" />
        </mxCell>
      </root>
    </mxGraphModel>
  </diagram>
</mxfile>
